<svg width="170" height="64" viewBox="0 0 170 64" fill="none" xmlns="http://www.w3.org/2000/svg">
<path d="M25.1386 0.845364C13.8682 3.26046 5.01289 11.3108 1.22927 22.541C0.263235 25.4391 0.142481 26.3649 0.142481 31.7988C0.10223 38.3196 0.706 41.2982 3.00033 45.8869C6.5827 52.9712 13.6267 59.3712 20.6304 61.7862C25.9033 63.6378 27.9562 63.7988 46.2303 63.7988H63.4981V59.9749V56.151H58.0239H52.5497L54.6025 53.8969C61.888 45.9271 64.8264 35.7837 62.7736 25.8013C59.1509 8.37241 42.2454 -2.81753 25.1386 0.845364ZM38.6228 9.05669C46.2303 11.3913 52.8717 18.4353 54.844 26.1636C55.6088 29.2227 55.6088 34.7774 54.844 37.8366C53.4353 43.351 48.8466 49.5498 44.0969 52.4479C29.848 60.9812 11.5739 52.8504 8.11225 36.4278C5.97892 26.3649 11.3726 15.4164 20.8317 10.6667C23.0857 9.5397 26.3864 8.45291 28.6807 8.09065C30.8945 7.76863 36.0467 8.25166 38.6228 9.05669Z" fill="black"/>
<path d="M16 31.9988V45.6844H17.4088H18.8176V39.8479C18.8176 36.6278 18.8578 34.0114 18.9383 34.0114C18.9786 34.0114 19.9044 34.4542 20.9912 35.0177C24.2113 36.6278 27.5924 36.185 30.4502 33.7699L31.9798 32.4416L32.7446 33.2869C33.8716 34.5347 37.3332 36.024 39.1848 36.024C40.1508 36.024 41.6401 35.6215 42.8074 35.0177C43.8942 34.4542 44.82 34.0114 44.9005 34.0114C44.9407 34.0114 44.981 36.668 44.981 39.8881V45.7246L46.5105 45.6039L47.9998 45.4831V31.9988V18.5145H46.591C45.3432 18.5145 45.1822 18.6353 44.981 19.7221C44.82 20.5271 44.6589 20.7686 44.4577 20.4064C43.8942 19.5208 41.2376 18.6756 39.064 18.6756C36.6489 18.6756 34.7169 19.4806 33.1068 21.1309L31.9798 22.2982L31.2553 21.3322C29.1219 18.6756 23.8893 17.8303 20.6289 19.6818L18.8176 20.6881V19.4806C18.8176 18.3938 18.6968 18.3133 17.4088 18.3133H16V31.9988ZM27.0691 21.9359C32.7446 24.673 30.7722 33.2064 24.4528 33.2064C19.9446 33.2064 17.4893 28.6982 19.5824 24.1095C20.8704 21.2919 23.9295 20.4064 27.0691 21.9359ZM42.1634 21.8554C43.9344 22.7007 44.981 24.7535 44.981 27.2894C44.981 30.8718 42.9684 33.2064 39.869 33.2064C35.9244 33.2064 33.7106 31.0328 33.7106 27.0881C33.7106 25.1963 33.9118 24.5925 34.7974 23.5057C36.7697 21.1711 39.5873 20.5271 42.1634 21.8554Z" fill="black"/>
<path d="M160.504 16.5034C160.504 18.0329 160.383 18.3147 159.699 18.3147C159.215 18.3147 158.893 18.5965 158.893 18.9587C158.893 19.4015 158.692 19.5222 158.209 19.321C154.265 17.7109 149.273 19.0795 147.382 22.3399C146.979 22.9839 146.536 23.5474 146.416 23.5474C146.295 23.5072 145.731 22.8229 145.168 21.9776C141.706 16.9864 133.334 17.7512 130.436 23.3059L129.832 24.5134L129.228 23.1046C128.544 21.4543 127.296 20.0455 125.767 19.2405C124.237 18.4757 121.017 18.4757 119.407 19.2807C117.797 20.0858 117.837 20.0858 117.837 19.1197C117.837 18.4757 117.555 18.3147 116.428 18.3147H115.02V27.17V36.0254H116.388H117.797L117.918 29.7864C118.038 23.7084 118.079 23.5474 119.085 22.5009C121.379 20.2065 125.485 21.2128 126.572 24.3524C126.853 25.1575 127.055 28.0153 127.055 30.8732L127.095 36.0254H128.504H129.913V33.1675V30.2694L130.959 31.8392C133.334 35.3411 136.916 36.7097 140.821 35.6229C142.229 35.2204 145.611 32.6845 145.611 31.96C145.611 31.799 145.087 31.3562 144.443 30.9939C143.276 30.4304 143.195 30.4304 142.149 31.3965C140.78 32.6845 139.653 32.9663 137.238 32.6845C135.749 32.5235 135.105 32.2015 134.058 31.0342C133.334 30.2292 132.73 29.4241 132.73 29.1826C132.73 28.9411 135.145 28.7801 139.331 28.7801H145.892L146.577 30.5914C148.267 34.9386 153.701 37.1927 157.927 35.2606C160.101 34.2543 160.262 33.9323 159.135 32.8455C158.33 32.0807 158.008 32.0002 157.283 32.4027C154.788 33.7311 150.682 32.4027 149.475 29.8266C147.1 24.8355 152.453 19.643 157.324 22.1386C158.37 22.7021 158.531 22.7021 158.732 22.1386C158.853 21.8166 159.336 21.5348 159.739 21.5348C160.463 21.5348 160.504 21.8971 160.504 26.4455C160.504 31.9197 160.946 33.4493 163.039 34.9788C164.408 35.9851 168.031 36.1461 169.077 35.2606C169.681 34.7776 169.681 34.6568 168.916 33.57C168.232 32.5638 167.99 32.4833 167.065 32.8455C165.776 33.3285 164.287 32.4833 163.724 30.9537C163.482 30.3902 163.321 28.0556 163.321 25.721V21.5348H165.173H166.984L166.863 20.0053C166.742 18.5562 166.702 18.516 165.052 18.3952L163.321 18.2744V16.4631C163.321 14.6921 163.321 14.6921 161.912 14.6921C160.504 14.6921 160.504 14.6921 160.504 16.5034ZM142.27 23.2656C142.994 24.0707 143.598 24.916 143.598 25.1575C143.598 25.399 141.585 25.56 138.164 25.56H132.69L133.334 24.3524C134.38 22.3801 136.192 21.4543 138.728 21.6556C140.619 21.7763 141.102 22.0178 142.27 23.2656Z" fill="black"/>
<path d="M75.0503 18.8782C69.4554 20.4078 66.8793 27.3713 70.1799 32.121C71.5887 34.1738 74.9698 36.0254 77.2641 36.0254C78.6327 36.0254 82.8188 34.6166 82.8188 34.1336C82.8188 34.0531 82.4163 33.4493 81.9735 32.8053C81.1283 31.7185 81.0478 31.6782 80.1622 32.282C78.8339 33.1273 75.6943 33.0468 74.4465 32.121C70.7837 29.3839 70.7434 24.8355 74.3258 22.4606C75.9358 21.3738 78.2704 21.2531 80.0012 22.1386C81.1283 22.7021 81.1685 22.7021 82.0138 21.5348L82.8591 20.3675L81.9333 19.7638C81.1685 19.2807 77.9082 18.2744 77.1836 18.3549C77.0629 18.3549 76.1371 18.5965 75.0503 18.8782Z" fill="black"/>
<path d="M88.7763 18.8782C82.0141 20.6895 79.8808 28.8204 84.9927 33.5298C87.7298 36.0254 91.1914 36.7097 94.2908 35.2606C96.1423 34.4153 98.2354 32.3222 99.0002 30.5914C99.4832 29.4644 99.5234 29.5851 99.6442 32.6845L99.7649 36.0254H101.133H102.542V30.0279C102.542 24.1512 102.583 23.9902 103.589 22.7826C104.837 21.2531 106.728 20.8505 108.701 21.6556C111.035 22.6619 111.398 23.8694 111.398 30.3902V36.0254H113.008H114.618V30.6719C114.618 24.7952 114.255 22.9436 112.806 21.2128C110.754 18.7977 106.487 17.9122 103.79 19.321C102.583 19.9248 102.542 19.9248 102.542 19.1197C102.542 18.4757 102.261 18.3147 101.133 18.3147H99.7247V21.8166L99.6844 25.3587L98.8392 23.7487C97.6719 21.4543 96.2228 20.0053 94.331 19.3612C91.7147 18.4355 90.7889 18.3549 88.7763 18.8782ZM94.2103 22.5814C95.6996 23.7084 96.5046 25.2782 96.5046 27.17C96.5046 31.638 92.1172 34.2946 88.1323 32.2417C84.2682 30.2292 84.2682 24.1512 88.1726 22.1789C89.8229 21.3336 92.8015 21.5348 94.2103 22.5814Z" fill="black"/>
</svg>
