<svg width="447" height="413" viewBox="0 0 447 413" fill="none" xmlns="http://www.w3.org/2000/svg">
<g clip-path="url(#clip0_391_2175)">
<path d="M61.21 95.8301V119.47" stroke="#B9D0F9" stroke-width="2.63" stroke-linecap="round" stroke-linejoin="round"/>
<path d="M73.0296 107.65H49.3896" stroke="#B9D0F9" stroke-width="2.63" stroke-linecap="round" stroke-linejoin="round"/>
<path d="M346.6 121.27V144.91" stroke="#B9D0F9" stroke-width="2.63" stroke-linecap="round" stroke-linejoin="round"/>
<path d="M358.42 133.09H334.78" stroke="#B9D0F9" stroke-width="2.63" stroke-linecap="round" stroke-linejoin="round"/>
<path d="M138.76 25.7998V40.5098" stroke="#B9D0F9" stroke-width="1.63" stroke-linecap="round" stroke-linejoin="round"/>
<path d="M146.12 33.1602H131.41" stroke="#B9D0F9" stroke-width="1.63" stroke-linecap="round" stroke-linejoin="round"/>
<path d="M328.82 27.6396V42.3496" stroke="#B9D0F9" stroke-width="1.63" stroke-linecap="round" stroke-linejoin="round"/>
<path d="M336.18 34.9902H321.46" stroke="#B9D0F9" stroke-width="1.63" stroke-linecap="round" stroke-linejoin="round"/>
<path d="M433.66 237.76V261.39" stroke="#B9D0F9" stroke-width="2.63" stroke-linecap="round" stroke-linejoin="round"/>
<path d="M445.48 249.58H421.84" stroke="#B9D0F9" stroke-width="2.63" stroke-linecap="round" stroke-linejoin="round"/>
<path opacity="0.27" d="M4.14988 396.93C-0.55012 370.61 -3.34012 342.44 7.52988 318C21.6699 286.24 58.8399 267.34 93.2499 272.27C109.57 274.61 125.25 281.62 141.72 281.52C151.746 281.442 161.575 278.728 170.22 273.65C196.5 258.18 205.93 225.21 225.44 201.76C238.498 186.152 255.996 174.886 275.61 169.46C317.1 158.1 358.08 177.62 380.67 213.14C391.918 230.831 398.267 251.192 399.07 272.14C399.31 278.76 392.65 334.14 390.02 332.95C404.58 339.49 413.72 357.5 414.25 373.44C426.78 373.49 438.88 382.75 441.69 394.96L4.14988 396.93Z" fill="#8FF2D1"/>
<path d="M255.84 23.6802C254.31 23.0502 252.73 22.4702 251.16 21.9502L250.69 23.3502C252.23 23.8602 253.78 24.4302 255.29 25.0402L255.84 23.6802Z" fill="#B9D0F9"/>
<path d="M273.14 33.6102C271.82 32.6102 270.45 31.6102 269.07 30.7002L268.25 31.9202C269.61 32.8302 270.95 33.7902 272.25 34.7802L273.14 33.6102Z" fill="#B9D0F9"/>
<path d="M264.82 28.0597C263.38 27.2297 261.9 26.4497 260.41 25.7197L259.76 27.0497C261.22 27.7597 262.67 28.5297 264.09 29.3397L264.82 28.0597Z" fill="#B9D0F9"/>
<path d="M246.36 20.5302C244.75 20.1202 243.11 19.7502 241.48 19.4502L241.2 20.9002C242.8 21.2002 244.41 21.5602 245.99 21.9602L246.36 20.5302Z" fill="#B9D0F9"/>
<path d="M297.08 65.12C296.46 63.58 295.78 62.04 295.08 60.54L293.75 61.18C294.46 62.65 295.13 64.18 295.75 65.67L297.08 65.12Z" fill="#B9D0F9"/>
<path d="M299.87 73.4903C299.53 72.2603 299.18 71.0303 298.79 69.8203L297.38 70.2803C297.73 71.3403 298.04 72.4103 298.38 73.4903H299.87Z" fill="#B9D0F9"/>
<path d="M236.53 18.6895C234.88 18.4895 233.2 18.3495 231.53 18.2695L231.45 19.7395C233.08 19.8195 234.72 19.9595 236.34 20.1595L236.53 18.6895Z" fill="#B9D0F9"/>
<path d="M287.22 47.7501C286.22 46.4301 285.15 45.1301 284.06 43.8701L282.94 44.8701C284.02 46.1001 285.06 47.3801 286.04 48.6801L287.22 47.7501Z" fill="#B9D0F9"/>
<path d="M292.73 56.1001C291.91 54.6601 291.03 53.2201 290.11 51.8301L288.88 52.6501C289.78 54.0101 290.64 55.4201 291.44 56.8301L292.73 56.1001Z" fill="#B9D0F9"/>
<path d="M280.65 40.2103C279.48 39.0303 278.25 37.8803 277 36.7803L276 37.8903C277.22 38.9703 278.42 40.1003 279.57 41.2503L280.65 40.2103Z" fill="#B9D0F9"/>
<path d="M207.22 22.5001L206.81 21.0801C205.21 21.5501 203.6 22.0801 202.04 22.6301L202.55 24.0201C204.08 23.4701 205.65 23.0001 207.22 22.5001Z" fill="#B9D0F9"/>
<path d="M174.13 42.7598L173.05 41.7598C171.91 42.9798 170.8 44.2398 169.75 45.5198L170.89 46.4598C171.92 45.1798 173 43.9398 174.13 42.7598Z" fill="#B9D0F9"/>
<path d="M162.74 58.65L161.43 58C160.65 59.47 159.91 61 159.24 62.49L160.58 63.09C161.25 61.57 162 60.09 162.74 58.65Z" fill="#B9D0F9"/>
<path d="M167.9 50.3297L166.7 49.4697C165.7 50.8197 164.8 52.2197 163.92 53.6297L165.18 54.3997C166 52.9997 167 51.6497 167.9 50.3297Z" fill="#B9D0F9"/>
<path d="M226.57 19.6399V18.1699C224.9 18.1699 223.22 18.2699 221.57 18.3999L221.69 19.8699C223.29 19.7399 224.93 19.6699 226.57 19.6399Z" fill="#B9D0F9"/>
<path d="M158.73 67.5901L157.35 67.0801C156.77 68.6401 156.24 70.2301 155.77 71.8301L157.19 72.2401C157.65 70.6801 158.17 69.1201 158.73 67.5901Z" fill="#B9D0F9"/>
<path d="M198 25.85L197.41 24.5C195.89 25.17 194.41 25.9 192.9 26.68L193.58 27.98C195 27.22 196.5 26.51 198 25.85Z" fill="#B9D0F9"/>
<path d="M216.8 20.43L216.58 19C214.93 19.24 213.28 19.54 211.66 19.89L212 21.3C213.56 21 215.18 20.66 216.8 20.43Z" fill="#B9D0F9"/>
<path d="M189.3 30.4004L188.53 29.1504C187.12 30.0104 185.71 30.9404 184.36 31.9004L185.21 33.1104C186.54 32.1604 187.92 31.2504 189.3 30.4004Z" fill="#B9D0F9"/>
<path d="M181.3 36.0697L180.37 34.9297C179.08 35.9297 177.81 37.0897 176.6 38.2197L177.6 39.2997C178.79 38.1897 180 37.0997 181.3 36.0697Z" fill="#B9D0F9"/>
<path d="M176.44 151.13H27.8101C21.5969 151.13 16.5601 156.167 16.5601 162.38V383.72C16.5601 389.933 21.5969 394.97 27.8101 394.97H176.44C182.653 394.97 187.69 389.933 187.69 383.72V162.38C187.69 156.167 182.653 151.13 176.44 151.13Z" fill="#624BEF"/>
<path d="M164.31 171.19H29.6099V359.88H164.31V171.19Z" fill="white"/>
<path d="M154.94 170.82C152.65 183.368 149.205 195.677 144.65 207.59C132.04 240.59 112.01 271.46 88.5398 298.87C77.6422 311.702 65.186 323.123 51.4598 332.87C44.6901 337.725 37.4305 341.858 29.7998 345.2V375.27H175.47V170.82H154.94Z" fill="#E4E4FD"/>
<path d="M102.4 169.8C116.693 169.8 128.28 159.149 128.28 146.01C128.28 132.871 116.693 122.22 102.4 122.22C88.1069 122.22 76.52 132.871 76.52 146.01C76.52 159.149 88.1069 169.8 102.4 169.8Z" fill="#34304F"/>
<path d="M154.15 177.21C155.295 174.723 155.888 172.018 155.89 169.28C155.89 157.94 145.8 148.66 133.46 148.66H69.0001C56.6601 148.66 46.5601 157.94 46.5601 169.28C46.5619 172.018 47.1555 174.723 48.3001 177.21H154.15Z" fill="#34304F"/>
<path d="M149.5 216H55.5C54.4391 216 53.4217 215.579 52.6716 214.828C51.9214 214.078 51.5 213.061 51.5 212C51.5 210.939 51.9214 209.922 52.6716 209.172C53.4217 208.421 54.4391 208 55.5 208H149.5C150.561 208 151.578 208.421 152.328 209.172C153.079 209.922 153.5 210.939 153.5 212C153.5 213.061 153.079 214.078 152.328 214.828C151.578 215.579 150.561 216 149.5 216Z" fill="#A7A7FC"/>
<path d="M149.5 238.82H55.5C54.4391 238.82 53.4217 238.399 52.6716 237.649C51.9214 236.899 51.5 235.881 51.5 234.82C51.5 233.759 51.9214 232.742 52.6716 231.992C53.4217 231.242 54.4391 230.82 55.5 230.82H149.5C150.561 230.82 151.578 231.242 152.328 231.992C153.079 232.742 153.5 233.759 153.5 234.82C153.5 235.881 153.079 236.899 152.328 237.649C151.578 238.399 150.561 238.82 149.5 238.82Z" fill="#A7A7FC"/>
<path d="M149.5 266.26H55.5C54.4391 266.26 53.4217 265.838 52.6716 265.088C51.9214 264.338 51.5 263.321 51.5 262.26C51.5 261.199 51.9214 260.181 52.6716 259.431C53.4217 258.681 54.4391 258.26 55.5 258.26H149.5C150.561 258.26 151.578 258.681 152.328 259.431C153.079 260.181 153.5 261.199 153.5 262.26C153.5 263.321 153.079 264.338 152.328 265.088C151.578 265.838 150.561 266.26 149.5 266.26Z" fill="#A7A7FC"/>
<path d="M149.5 285.69H55.52C53.3109 285.69 51.52 287.481 51.52 289.69C51.52 291.9 53.3109 293.69 55.52 293.69H149.5C151.709 293.69 153.5 291.9 153.5 289.69C153.5 287.481 151.709 285.69 149.5 285.69Z" fill="#A7A7FC"/>
<path d="M149.5 321.13H55.5C54.4391 321.13 53.4217 320.708 52.6716 319.958C51.9214 319.208 51.5 318.191 51.5 317.13C51.5 316.069 51.9214 315.052 52.6716 314.301C53.4217 313.551 54.4391 313.13 55.5 313.13H149.5C150.561 313.13 151.578 313.551 152.328 314.301C153.079 315.052 153.5 316.069 153.5 317.13C153.5 318.191 153.079 319.208 152.328 319.958C151.578 320.708 150.561 321.13 149.5 321.13Z" fill="#A7A7FC"/>
<path d="M149.5 348.56H55.5C54.4391 348.56 53.4217 348.138 52.6716 347.388C51.9214 346.638 51.5 345.62 51.5 344.56C51.5 343.499 51.9214 342.481 52.6716 341.731C53.4217 340.981 54.4391 340.56 55.5 340.56H149.5C150.561 340.56 151.578 340.981 152.328 341.731C153.079 342.481 153.5 343.499 153.5 344.56C153.5 345.62 153.079 346.638 152.328 347.388C151.578 348.138 150.561 348.56 149.5 348.56Z" fill="#A7A7FC"/>
<path d="M102.73 150.72C107.165 150.72 110.76 147.416 110.76 143.34C110.76 139.264 107.165 135.96 102.73 135.96C98.2949 135.96 94.6997 139.264 94.6997 143.34C94.6997 147.416 98.2949 150.72 102.73 150.72Z" fill="white"/>
<path d="M55.8498 171.38C55.7882 168.11 57.0269 164.95 59.2938 162.593C61.5607 160.236 64.6704 158.875 67.9399 158.81H134.89C138.031 158.873 141.019 160.181 143.196 162.446C145.373 164.711 146.561 167.748 146.5 170.89V173.1" stroke="#624BEF" stroke-width="1.68" stroke-linecap="round" stroke-linejoin="round"/>
<path d="M12.1299 395.34H437" stroke="#34304F" stroke-width="5.52" stroke-linecap="round" stroke-linejoin="round"/>
<path d="M95.9998 98.6098C96.5137 99.1247 96.8634 99.7805 97.0047 100.494C97.1461 101.208 97.0727 101.947 96.7939 102.619C96.5152 103.291 96.0435 103.865 95.4385 104.269C94.8335 104.673 94.1223 104.889 93.3948 104.889C92.6673 104.889 91.9562 104.673 91.3512 104.269C90.7462 103.865 90.2745 103.291 89.9957 102.619C89.717 101.947 89.6436 101.208 89.785 100.494C89.9263 99.7805 90.276 99.1247 90.7898 98.6098C91.4815 97.9203 92.4183 97.5332 93.3948 97.5332C94.3714 97.5332 95.3082 97.9203 95.9998 98.6098Z" fill="#B9D0F9"/>
<path d="M104.85 79.9504C105.75 79.9504 106.48 79.2207 106.48 78.3204C106.48 77.4202 105.75 76.6904 104.85 76.6904C103.949 76.6904 103.22 77.4202 103.22 78.3204C103.22 79.2207 103.949 79.9504 104.85 79.9504Z" fill="#B9D0F9"/>
<path d="M84.4099 85.2699C84.4099 85.5947 84.3134 85.9122 84.1328 86.1821C83.9521 86.452 83.6954 86.6622 83.3952 86.786C83.0949 86.9098 82.7646 86.9417 82.4462 86.8776C82.1278 86.8135 81.8356 86.6563 81.6067 86.426C81.3777 86.1956 81.2223 85.9025 81.1602 85.5837C81.098 85.2649 81.1319 84.9348 81.2576 84.6354C81.3833 84.3359 81.595 84.0804 81.866 83.9014C82.1371 83.7224 82.4551 83.6279 82.7799 83.6299C82.9948 83.6299 83.2076 83.6724 83.406 83.7549C83.6044 83.8375 83.7845 83.9584 83.936 84.1109C84.0875 84.2633 84.2074 84.4442 84.2887 84.6431C84.37 84.842 84.4112 85.055 84.4099 85.2699Z" fill="#B9D0F9"/>
<path d="M37.4098 116.13C37.4098 117.303 37.062 118.45 36.4104 119.425C35.7588 120.4 34.8327 121.16 33.7491 121.609C32.6656 122.058 31.4732 122.175 30.3229 121.946C29.1726 121.717 28.116 121.153 27.2867 120.323C26.4573 119.494 25.8926 118.437 25.6638 117.287C25.4349 116.137 25.5524 114.944 26.0012 113.861C26.45 112.777 27.2101 111.851 28.1853 111.2C29.1605 110.548 30.307 110.2 31.4798 110.2C32.2589 110.199 33.0306 110.351 33.7507 110.649C34.4707 110.946 35.125 111.383 35.6759 111.934C36.2268 112.485 36.6636 113.139 36.9611 113.859C37.2586 114.579 37.4111 115.351 37.4098 116.13Z" fill="#B9D0F9"/>
<path d="M34.5501 144.74C34.5501 145.104 34.4422 145.46 34.24 145.763C34.0378 146.065 33.7505 146.301 33.4143 146.44C33.078 146.58 32.7081 146.616 32.3512 146.545C31.9942 146.474 31.6664 146.299 31.409 146.041C31.1517 145.784 30.9765 145.456 30.9055 145.099C30.8345 144.742 30.8709 144.372 31.0102 144.036C31.1494 143.7 31.3853 143.413 31.6879 143.21C31.9905 143.008 32.3462 142.9 32.7101 142.9C33.1973 142.903 33.6638 143.098 34.0083 143.442C34.3528 143.787 34.5475 144.253 34.5501 144.74Z" fill="#B9D0F9"/>
<path d="M115.27 123.07C116.17 123.07 116.9 122.34 116.9 121.44C116.9 120.539 116.17 119.81 115.27 119.81C114.369 119.81 113.64 120.539 113.64 121.44C113.64 122.34 114.369 123.07 115.27 123.07Z" fill="#B9D0F9"/>
<path d="M209.48 188.06C209.48 188.99 209.204 189.899 208.688 190.672C208.172 191.444 207.438 192.047 206.579 192.403C205.72 192.758 204.775 192.851 203.863 192.67C202.951 192.489 202.114 192.041 201.457 191.384C200.799 190.726 200.352 189.889 200.17 188.977C199.989 188.066 200.082 187.121 200.438 186.262C200.794 185.403 201.396 184.669 202.169 184.152C202.942 183.636 203.851 183.36 204.78 183.36C205.398 183.359 206.009 183.48 206.58 183.715C207.151 183.951 207.67 184.297 208.106 184.734C208.543 185.171 208.889 185.689 209.125 186.26C209.361 186.831 209.481 187.443 209.48 188.06Z" fill="#B9D0F9"/>
<path d="M205.25 162.68C206.266 162.68 207.09 161.856 207.09 160.84C207.09 159.824 206.266 159 205.25 159C204.233 159 203.41 159.824 203.41 160.84C203.41 161.856 204.233 162.68 205.25 162.68Z" fill="#B9D0F9"/>
<path d="M196.81 204.82C196.81 205.102 196.726 205.379 196.569 205.614C196.412 205.849 196.188 206.033 195.927 206.141C195.666 206.249 195.378 206.277 195.101 206.222C194.823 206.167 194.569 206.031 194.369 205.831C194.169 205.631 194.032 205.376 193.977 205.099C193.922 204.821 193.95 204.534 194.059 204.272C194.167 204.011 194.35 203.788 194.585 203.631C194.82 203.474 195.097 203.39 195.38 203.39C195.568 203.39 195.753 203.427 195.927 203.499C196.1 203.57 196.258 203.676 196.391 203.808C196.524 203.941 196.629 204.099 196.701 204.272C196.773 204.446 196.81 204.632 196.81 204.82Z" fill="#B9D0F9"/>
<path d="M237.28 177.23C237.28 178.524 236.896 179.788 236.178 180.864C235.459 181.939 234.437 182.778 233.242 183.273C232.047 183.768 230.732 183.897 229.464 183.645C228.195 183.392 227.03 182.77 226.115 181.855C225.201 180.94 224.578 179.775 224.325 178.506C224.073 177.238 224.203 175.923 224.698 174.728C225.193 173.533 226.031 172.511 227.106 171.793C228.182 171.074 229.446 170.69 230.74 170.69C232.474 170.69 234.138 171.379 235.364 172.606C236.591 173.832 237.28 175.496 237.28 177.23Z" fill="#B9D0F9"/>
<path d="M416.3 168.44C416.302 169.128 416.099 169.802 415.718 170.376C415.337 170.949 414.794 171.397 414.159 171.662C413.523 171.927 412.823 171.997 412.147 171.864C411.471 171.731 410.85 171.4 410.363 170.914C409.875 170.428 409.543 169.808 409.407 169.132C409.272 168.457 409.341 167.757 409.604 167.12C409.867 166.484 410.313 165.94 410.885 165.557C411.458 165.174 412.131 164.97 412.82 164.97C413.741 164.97 414.625 165.335 415.277 165.985C415.929 166.636 416.297 167.519 416.3 168.44Z" fill="#B9D0F9"/>
<path d="M381.6 76.9995C381.598 77.6854 381.392 78.3553 381.01 78.9246C380.628 79.494 380.085 79.9372 379.451 80.1983C378.816 80.4594 378.119 80.5266 377.447 80.3916C376.774 80.2566 376.157 79.9253 375.672 79.4397C375.188 78.954 374.859 78.3357 374.726 77.6628C374.593 76.99 374.662 76.2928 374.925 75.6593C375.188 75.0258 375.632 74.4845 376.203 74.1036C376.773 73.7228 377.444 73.5195 378.13 73.5195C378.586 73.5195 379.038 73.6096 379.46 73.7846C379.882 73.9596 380.264 74.2161 380.587 74.5394C380.909 74.8627 381.165 75.2464 381.338 75.6685C381.512 76.0907 381.601 76.543 381.6 76.9995Z" fill="#B9D0F9"/>
<path d="M404 194.81C404 195.862 403.688 196.891 403.103 197.766C402.519 198.641 401.688 199.323 400.716 199.725C399.744 200.128 398.674 200.233 397.642 200.028C396.61 199.823 395.662 199.316 394.918 198.572C394.174 197.828 393.667 196.88 393.462 195.848C393.257 194.816 393.362 193.746 393.765 192.774C394.167 191.802 394.849 190.971 395.724 190.387C396.599 189.802 397.628 189.49 398.68 189.49C400.091 189.49 401.444 190.051 402.442 191.048C403.439 192.046 404 193.399 404 194.81Z" fill="#B9D0F9"/>
<path d="M391 143.92C391.002 144.609 390.8 145.283 390.418 145.856C390.037 146.43 389.494 146.878 388.859 147.142C388.223 147.407 387.523 147.478 386.847 147.345C386.172 147.211 385.551 146.881 385.063 146.394C384.575 145.908 384.243 145.288 384.108 144.613C383.973 143.937 384.041 143.237 384.304 142.601C384.567 141.964 385.013 141.42 385.586 141.037C386.158 140.655 386.831 140.45 387.52 140.45C387.977 140.449 388.429 140.538 388.851 140.711C389.273 140.885 389.657 141.141 389.98 141.463C390.303 141.785 390.56 142.168 390.735 142.59C390.91 143.012 391 143.464 391 143.92Z" fill="#B9D0F9"/>
<path d="M403.67 40.3804C403.668 41.0663 403.463 41.7362 403.08 42.3055C402.698 42.8748 402.155 43.318 401.521 43.5791C400.887 43.8402 400.189 43.9075 399.517 43.7725C398.844 43.6375 398.227 43.3062 397.743 42.8205C397.259 42.3348 396.929 41.7165 396.796 41.0437C396.663 40.3708 396.732 39.6737 396.995 39.0402C397.258 38.4067 397.703 37.8653 398.273 37.4845C398.844 37.1037 399.514 36.9004 400.2 36.9004C400.657 36.9004 401.109 36.9905 401.53 37.1655C401.952 37.3405 402.335 37.597 402.657 37.9203C402.98 38.2435 403.235 38.6273 403.409 39.0494C403.583 39.4716 403.671 39.9239 403.67 40.3804Z" fill="#B9D0F9"/>
<path d="M264.07 223.34L297.11 267.8" stroke="#E4E4FD" stroke-width="2.65" stroke-linecap="round" stroke-linejoin="round"/>
<path d="M373.03 231.8H248.52V345.94H373.03V231.8Z" fill="#F9A41C"/>
<path opacity="0.6" d="M373.02 231.8H320.09V345.94H373.02V231.8Z" fill="#E56700"/>
<path d="M294.5 240.99H258.94V260H294.5V240.99Z" fill="#34304F"/>
<path d="M295.11 264.29H259.55V273.28H295.11V264.29Z" fill="#34304F"/>
<path d="M230.3 267.8V345.98H341.08L387.99 269.58L230.3 267.8Z" stroke="#E4E4FD" stroke-width="2.65" stroke-linecap="round" stroke-linejoin="round"/>
<path d="M197.26 223.34L230.3 267.8" stroke="#E4E4FD" stroke-width="2.65" stroke-linecap="round" stroke-linejoin="round"/>
<path d="M247.74 269.29V343.96" stroke="#E4E4FD" stroke-width="2.64" stroke-linecap="round" stroke-linejoin="round"/>
<path d="M272.74 269.35V344.41" stroke="#E4E4FD" stroke-width="2.65" stroke-linecap="round" stroke-linejoin="round"/>
<path d="M296.85 269.8V344.85" stroke="#E4E4FD" stroke-width="2.65" stroke-linecap="round" stroke-linejoin="round"/>
<path d="M320.08 270.25V345.3" stroke="#E4E4FD" stroke-width="2.65" stroke-linecap="round" stroke-linejoin="round"/>
<path d="M344.19 345.75V270.69" stroke="#E4E4FD" stroke-width="2.65" stroke-linecap="round" stroke-linejoin="round"/>
<path d="M231.21 295.71H404" stroke="#E4E4FD" stroke-width="2.65" stroke-linecap="round" stroke-linejoin="round"/>
<path d="M231.21 325.64L385.19 325.2" stroke="#E4E4FD" stroke-width="2.65" stroke-linecap="round" stroke-linejoin="round"/>
<path d="M366.11 346.36L366.55 271.12" stroke="#E4E4FD" stroke-width="2.65" stroke-linecap="round" stroke-linejoin="round"/>
<path d="M278 224.84H183.37C182.262 224.838 181.2 224.397 180.417 223.613C179.634 222.83 179.193 221.768 179.19 220.66C179.193 219.553 179.634 218.491 180.417 217.708C181.2 216.924 182.262 216.483 183.37 216.48H278C279.106 216.486 280.165 216.928 280.946 217.711C281.727 218.494 282.167 219.554 282.17 220.66C282.167 221.767 281.727 222.827 280.946 223.61C280.165 224.393 279.106 224.835 278 224.84Z" fill="#A095F8"/>
<path d="M278 216.48H245C245.517 219.313 246.228 222.106 247.13 224.84H278C279.109 224.84 280.172 224.4 280.956 223.616C281.74 222.832 282.18 221.769 282.18 220.66C282.18 219.552 281.74 218.489 280.956 217.705C280.172 216.921 279.109 216.48 278 216.48Z" fill="#34304F"/>
<path d="M382.04 269.29L422.63 269.88L373.03 345.94L320.08 345.3" stroke="#E4E4FD" stroke-width="2.63" stroke-linecap="round" stroke-linejoin="round"/>
<path d="M359.46 345.24L403.81 271.64" stroke="#E4E4FD" stroke-width="2.64" stroke-linecap="round" stroke-linejoin="round"/>
<path d="M277.81 389C276.481 391.051 274.573 392.662 272.329 393.629C270.084 394.596 267.603 394.876 265.199 394.434C262.796 393.991 260.577 392.846 258.824 391.143C257.071 389.44 255.862 387.255 255.351 384.865C254.839 382.475 255.048 379.987 255.95 377.715C256.852 375.444 258.408 373.491 260.42 372.103C262.432 370.716 264.81 369.956 267.254 369.919C269.698 369.883 272.097 370.572 274.15 371.9C275.513 372.782 276.69 373.924 277.612 375.261C278.534 376.597 279.184 378.103 279.523 379.691C279.863 381.279 279.887 382.919 279.593 384.516C279.299 386.113 278.693 387.637 277.81 389Z" fill="#624BEF"/>
<path d="M272.89 385.781C272.191 386.855 271.189 387.698 270.011 388.204C268.833 388.71 267.531 388.855 266.271 388.622C265.01 388.389 263.847 387.787 262.927 386.894C262.008 386 261.374 384.854 261.105 383.601C260.836 382.347 260.945 381.042 261.417 379.85C261.889 378.658 262.703 377.633 263.758 376.903C264.812 376.174 266.058 375.773 267.34 375.751C268.622 375.729 269.882 376.087 270.96 376.781C271.68 377.243 272.301 377.843 272.788 378.547C273.274 379.25 273.617 380.043 273.797 380.879C273.976 381.716 273.988 382.579 273.833 383.42C273.677 384.262 273.357 385.064 272.89 385.781Z" fill="#34304F"/>
<path d="M265.58 381.56C264.458 381.139 263.549 380.293 263.049 379.205C262.548 378.116 262.499 376.875 262.91 375.75L269.44 358.12C269.86 356.998 270.707 356.089 271.795 355.589C272.883 355.088 274.125 355.039 275.25 355.45C276.373 355.868 277.284 356.714 277.785 357.803C278.285 358.892 278.334 360.135 277.92 361.26L271.4 378.89C270.977 380.012 270.129 380.922 269.039 381.422C267.949 381.922 266.706 381.971 265.58 381.56Z" fill="#A2A2ED"/>
<path d="M369.9 340.37H352.38L391.7 277.5L408.76 277.96L369.9 340.37Z" fill="#7973EF"/>
<path d="M361.28 395.01C368.106 395.01 373.64 389.476 373.64 382.65C373.64 375.824 368.106 370.29 361.28 370.29C354.454 370.29 348.92 375.824 348.92 382.65C348.92 389.476 354.454 395.01 361.28 395.01Z" fill="#624BEF"/>
<path d="M361.28 388.68C364.61 388.68 367.31 385.98 367.31 382.65C367.31 379.32 364.61 376.62 361.28 376.62C357.95 376.62 355.25 379.32 355.25 382.65C355.25 385.98 357.95 388.68 361.28 388.68Z" fill="#34304F"/>
<path d="M360.19 355.28H359.78C357.737 355.28 356.08 356.937 356.08 358.98V377.91C356.08 379.954 357.737 381.61 359.78 381.61H360.19C362.234 381.61 363.89 379.954 363.89 377.91V358.98C363.89 356.937 362.234 355.28 360.19 355.28Z" fill="#A2A2ED"/>
<path d="M230.3 356.7H368.33" stroke="#34304F" stroke-width="3.53" stroke-linecap="round" stroke-linejoin="round"/>
<path d="M235.02 394.31C241.846 394.31 247.38 388.776 247.38 381.95C247.38 375.124 241.846 369.59 235.02 369.59C228.193 369.59 222.66 375.124 222.66 381.95C222.66 388.776 228.193 394.31 235.02 394.31Z" fill="#624BEF"/>
<path d="M235.02 389.3C239.079 389.3 242.37 386.009 242.37 381.95C242.37 377.89 239.079 374.6 235.02 374.6C230.961 374.6 227.67 377.89 227.67 381.95C227.67 386.009 230.961 389.3 235.02 389.3Z" stroke="white" stroke-width="1.74" stroke-linecap="round" stroke-linejoin="round"/>
<path d="M332.99 395.01C339.816 395.01 345.35 389.476 345.35 382.65C345.35 375.824 339.816 370.29 332.99 370.29C326.164 370.29 320.63 375.824 320.63 382.65C320.63 389.476 326.164 395.01 332.99 395.01Z" fill="#624BEF"/>
<path d="M233.17 381.27C232.048 380.847 231.138 379.999 230.638 378.909C230.138 377.819 230.089 376.576 230.5 375.45L237 357.83C237.418 356.707 238.265 355.795 239.354 355.295C240.443 354.794 241.685 354.746 242.81 355.16C243.932 355.58 244.841 356.427 245.341 357.515C245.842 358.603 245.891 359.845 245.48 360.97L239 378.59C238.58 379.716 237.73 380.63 236.638 381.132C235.546 381.635 234.299 381.684 233.17 381.27Z" fill="#A2A2ED"/>
<path d="M332.54 389.65C336.599 389.65 339.89 386.359 339.89 382.3C339.89 378.241 336.599 374.95 332.54 374.95C328.481 374.95 325.19 378.241 325.19 382.3C325.19 386.359 328.481 389.65 332.54 389.65Z" stroke="white" stroke-width="1.74" stroke-linecap="round" stroke-linejoin="round"/>
<path d="M331.86 354.68H331.53C329.464 354.68 327.79 356.354 327.79 358.42V377.87C327.79 379.935 329.464 381.61 331.53 381.61H331.86C333.926 381.61 335.6 379.935 335.6 377.87V358.42C335.6 356.354 333.926 354.68 331.86 354.68Z" fill="#A2A2ED"/>
<path d="M319.63 231.8L340.79 253H406.08L384.77 231.69L319.63 231.8Z" fill="#FAC119"/>
<path d="M421.2 236.49C422.1 236.49 422.83 235.761 422.83 234.86C422.83 233.96 422.1 233.23 421.2 233.23C420.3 233.23 419.57 233.96 419.57 234.86C419.57 235.761 420.3 236.49 421.2 236.49Z" fill="#B9D0F9"/>
<path d="M424.88 335.61C424.882 336.299 424.679 336.973 424.298 337.547C423.916 338.121 423.373 338.568 422.736 338.833C422.1 339.097 421.399 339.167 420.723 339.033C420.047 338.899 419.426 338.568 418.939 338.08C418.452 337.593 418.12 336.972 417.986 336.296C417.852 335.62 417.922 334.92 418.187 334.283C418.451 333.647 418.899 333.104 419.473 332.722C420.047 332.34 420.721 332.138 421.41 332.14C422.33 332.14 423.213 332.505 423.864 333.156C424.514 333.807 424.88 334.689 424.88 335.61Z" fill="#B9D0F9"/>
<path d="M149.19 128.2V85.9996H226.32C243.42 85.9996 254.58 102.7 268.32 112.71C279.45 101 294 91.2396 308.18 82.3596C310.96 80.6373 314.229 79.8793 317.483 80.2029C320.737 80.5265 323.794 81.9136 326.18 84.1496L326.34 84.2996C327.315 85.2113 328.091 86.315 328.618 87.5412C329.146 88.7673 329.414 90.0895 329.405 91.4243C329.397 92.7592 329.112 94.0778 328.569 95.2972C328.026 96.5166 327.236 97.6104 326.25 98.5096C311.36 112.09 297.75 126.72 283.51 141.11C279.6 145.06 275.67 149.11 270.91 151.99C266.15 154.87 260.37 156.58 254.91 155.38L149.19 128.2Z" fill="#A7A7FC"/>
<path d="M227.81 111.9L264.81 135.69C266.784 136.961 269.149 137.479 271.473 137.151C273.797 136.822 275.926 135.668 277.47 133.9C279.084 132.055 279.919 129.655 279.799 127.206C279.68 124.757 278.616 122.45 276.83 120.77L268.36 112.77" stroke="#624BEF" stroke-width="1.9" stroke-linecap="round" stroke-linejoin="round"/>
<path d="M164.53 75.9697H135.44V136.32H164.53V75.9697Z" fill="#34304F"/>
<path d="M275.42 125.44L269.07 133.31C268.869 133.553 268.581 133.708 268.267 133.741C267.953 133.775 267.638 133.685 267.39 133.49L262.7 129.81C262.577 129.715 262.473 129.596 262.396 129.461C262.319 129.326 262.27 129.176 262.251 129.022C262.232 128.867 262.245 128.71 262.288 128.561C262.33 128.411 262.403 128.271 262.5 128.15L268.85 120.28C269.052 120.034 269.341 119.877 269.656 119.842C269.972 119.806 270.289 119.895 270.54 120.09L275.23 123.78C275.352 123.876 275.453 123.995 275.528 124.131C275.604 124.267 275.652 124.416 275.669 124.57C275.687 124.724 275.674 124.881 275.631 125.03C275.589 125.179 275.517 125.318 275.42 125.44Z" stroke="#624BEF" stroke-width="1.6" stroke-linecap="round" stroke-linejoin="round"/>
<path d="M155.94 89.0002C155.922 89.966 155.62 90.9051 155.071 91.7C154.522 92.4948 153.751 93.1102 152.854 93.4689C151.957 93.8276 150.975 93.9139 150.029 93.7168C149.083 93.5197 148.217 93.0481 147.538 92.361C146.859 91.6738 146.398 90.8017 146.212 89.8537C146.026 88.9058 146.125 87.9241 146.494 87.0317C146.864 86.1392 147.488 85.3755 148.29 84.8363C149.091 84.2971 150.034 84.0062 151 84.0002C151.655 83.9947 152.305 84.1207 152.911 84.3708C153.516 84.6209 154.066 84.99 154.526 85.4562C154.987 85.9223 155.349 86.4762 155.592 87.0849C155.835 87.6937 155.953 88.3449 155.94 89.0002Z" stroke="#A7A7FC" stroke-width="1.23" stroke-linecap="round" stroke-linejoin="round"/>
<mask id="mask0_391_2175" style="mask-type:luminance" maskUnits="userSpaceOnUse" x="250" y="163" width="124" height="69">
<path d="M373.03 163.65H250.31V231.7H373.03V163.65Z" fill="white"/>
</mask>
<g mask="url(#mask0_391_2175)">
<path d="M259.28 230.051V162.996H282.723C287.394 162.996 291.247 163.804 294.281 165.419C297.315 167.013 299.574 169.163 301.058 171.869C302.542 174.554 303.285 177.533 303.285 180.808C303.285 183.689 302.772 186.068 301.746 187.945C300.742 189.822 299.41 191.307 297.751 192.398C296.114 193.489 294.335 194.297 292.414 194.821V195.476C294.466 195.607 296.529 196.327 298.603 197.637C300.676 198.946 302.411 200.824 303.808 203.268C305.205 205.713 305.904 208.703 305.904 212.239C305.904 215.601 305.14 218.624 303.612 221.309C302.084 223.994 299.672 226.122 296.376 227.693C293.08 229.265 288.791 230.051 283.509 230.051H259.28ZM267.4 222.848H283.509C288.813 222.848 292.578 221.822 294.805 219.77C297.053 217.696 298.177 215.186 298.177 212.239C298.177 209.969 297.598 207.874 296.442 205.953C295.285 204.01 293.637 202.461 291.498 201.304C289.359 200.125 286.827 199.536 283.902 199.536H267.4V222.848ZM267.4 192.464H282.461C284.906 192.464 287.11 191.983 289.075 191.023C291.061 190.063 292.633 188.709 293.79 186.963C294.968 185.217 295.558 183.165 295.558 180.808C295.558 177.861 294.532 175.362 292.48 173.31C290.428 171.236 287.176 170.199 282.723 170.199H267.4V192.464Z" fill="#7195F5"/>
<path d="M321.675 236.541V184.89H339.732C343.33 184.89 346.298 185.512 348.635 186.756C350.972 187.984 352.712 189.64 353.855 191.725C354.999 193.793 355.57 196.088 355.57 198.61C355.57 200.829 355.175 202.662 354.385 204.108C353.612 205.554 352.586 206.697 351.308 207.538C350.047 208.378 348.677 209.001 347.197 209.404V209.909C348.778 210.009 350.367 210.564 351.964 211.573C353.561 212.582 354.898 214.028 355.974 215.911C357.05 217.794 357.588 220.097 357.588 222.821C357.588 225.411 357 227.739 355.823 229.807C354.646 231.875 352.788 233.515 350.249 234.725C347.71 235.936 344.406 236.541 340.337 236.541H321.675ZM327.929 230.993H340.337C344.423 230.993 347.323 230.202 349.038 228.622C350.77 227.025 351.636 225.091 351.636 222.821C351.636 221.073 351.191 219.459 350.299 217.979C349.408 216.483 348.139 215.289 346.491 214.398C344.843 213.49 342.893 213.036 340.64 213.036H327.929V230.993ZM327.929 207.588H339.53C341.414 207.588 343.112 207.218 344.625 206.479C346.155 205.739 347.365 204.696 348.257 203.351C349.165 202.006 349.618 200.426 349.618 198.61C349.618 196.34 348.828 194.415 347.248 192.834C345.667 191.237 343.162 190.439 339.732 190.439H327.929V207.588Z" fill="#34304F"/>
<path d="M302.632 236.501V232.73L316.795 217.225C318.457 215.41 319.826 213.831 320.902 212.49C321.977 211.135 322.773 209.864 323.29 208.677C323.821 207.476 324.086 206.219 324.086 204.906C324.086 203.397 323.723 202.091 322.997 200.988C322.284 199.884 321.307 199.032 320.064 198.432C318.82 197.831 317.424 197.531 315.873 197.531C314.225 197.531 312.786 197.873 311.557 198.557C310.342 199.228 309.399 200.171 308.729 201.386C308.072 202.601 307.744 204.026 307.744 205.66H302.799C302.799 203.146 303.379 200.939 304.538 199.039C305.698 197.14 307.276 195.659 309.273 194.598C311.285 193.536 313.541 193.005 316.041 193.005C318.555 193.005 320.783 193.536 322.724 194.598C324.666 195.659 326.188 197.091 327.292 198.893C328.395 200.695 328.947 202.699 328.947 204.906C328.947 206.484 328.661 208.028 328.088 209.536C327.529 211.031 326.552 212.7 325.155 214.544C323.772 216.373 321.851 218.608 319.393 221.248L309.755 231.556V231.892H329.701V236.501H302.632Z" fill="#9FBDFF"/>
</g>
<path d="M167.27 412.44C187.738 412.44 204.33 395.848 204.33 375.38C204.33 354.913 187.738 338.32 167.27 338.32C146.802 338.32 130.21 354.913 130.21 375.38C130.21 395.848 146.802 412.44 167.27 412.44Z" fill="#FAC119"/>
<path d="M151.16 374.49L162.48 386.02L186.07 359.72" stroke="white" stroke-width="5.37" stroke-linecap="round" stroke-linejoin="round"/>
<path d="M175.86 348.08C190.24 347.17 202.95 334.52 203.86 320.14C205.731 326.927 205.76 334.091 203.943 340.893C202.125 347.695 198.527 353.89 193.52 358.84C192.14 351.86 183 348.42 175.86 348.08Z" fill="#FAC119"/>
<path d="M229.38 64.02C247.059 64.02 261.39 49.6886 261.39 32.01C261.39 14.3314 247.059 0 229.38 0C211.701 0 197.37 14.3314 197.37 32.01C197.37 49.6886 211.701 64.02 229.38 64.02Z" fill="#FAC119"/>
<path d="M229.38 64.02C247.059 64.02 261.39 49.6886 261.39 32.01C261.39 14.3314 247.059 0 229.38 0C211.701 0 197.37 14.3314 197.37 32.01C197.37 49.6886 211.701 64.02 229.38 64.02Z" fill="#FAC119"/>
<path d="M229.38 55.5497C242.381 55.5497 252.92 45.0105 252.92 32.0097C252.92 19.0089 242.381 8.46973 229.38 8.46973C216.379 8.46973 205.84 19.0089 205.84 32.0097C205.84 45.0105 216.379 55.5497 229.38 55.5497Z" fill="#F9A41C"/>
<path d="M228.384 43.6914V20.2732H229.885V43.6914H228.384ZM233.434 27.2987C233.324 26.3717 232.879 25.6521 232.098 25.1398C231.318 24.6276 230.36 24.3714 229.226 24.3714C228.397 24.3714 227.671 24.5056 227.049 24.7739C226.433 25.0423 225.951 25.4112 225.604 25.8808C225.262 26.3504 225.091 26.884 225.091 27.4817C225.091 27.9817 225.21 28.4117 225.448 28.7715C225.692 29.1252 226.003 29.421 226.381 29.6588C226.759 29.8906 227.156 30.0827 227.57 30.2351C227.985 30.3815 228.366 30.5004 228.714 30.5919L230.617 31.1042C231.104 31.2322 231.647 31.4091 232.245 31.6347C232.849 31.8604 233.425 32.1683 233.974 32.5586C234.529 32.9428 234.986 33.4368 235.346 34.0406C235.706 34.6443 235.886 35.3853 235.886 36.2635C235.886 37.2758 235.62 38.1906 235.09 39.0078C234.565 39.825 233.797 40.4745 232.785 40.9563C231.778 41.438 230.556 41.6789 229.116 41.6789C227.775 41.6789 226.613 41.4624 225.631 41.0294C224.655 40.5964 223.887 39.9927 223.326 39.2182C222.771 38.4437 222.457 37.5442 222.384 36.5196H224.725C224.786 37.227 225.024 37.8125 225.439 38.276C225.86 38.7334 226.39 39.0749 227.031 39.3005C227.677 39.5201 228.372 39.6298 229.116 39.6298C229.982 39.6298 230.76 39.4896 231.449 39.209C232.138 38.9224 232.684 38.526 233.086 38.0198C233.489 37.5076 233.69 36.9099 233.69 36.2269C233.69 35.6048 233.516 35.0987 233.169 34.7084C232.821 34.3181 232.364 34.0009 231.797 33.757C231.229 33.5131 230.617 33.2996 229.958 33.1167L227.653 32.458C226.189 32.0372 225.03 31.4365 224.177 30.6559C223.323 29.8753 222.896 28.8538 222.896 27.5914C222.896 26.5425 223.179 25.6277 223.747 24.8471C224.32 24.0604 225.088 23.4506 226.052 23.0176C227.021 22.5785 228.104 22.3589 229.299 22.3589C230.507 22.3589 231.58 22.5754 232.519 23.0084C233.458 23.4353 234.202 24.0208 234.751 24.7648C235.306 25.5088 235.599 26.3534 235.629 27.2987H233.434Z" fill="#E56700"/>
<path d="M202.89 12.8799L209.88 18.3999" stroke="#E88900" stroke-width="2.21" stroke-linecap="round" stroke-linejoin="round"/>
<path d="M209.92 5.86035L215.36 12.9104" stroke="#E88900" stroke-width="2.21" stroke-linecap="round" stroke-linejoin="round"/>
<path d="M219.24 1.66016L222.96 9.75016" stroke="#E88900" stroke-width="2.21" stroke-linecap="round" stroke-linejoin="round"/>
<path d="M253.7 52.9497L246.71 47.4297" stroke="#E88900" stroke-width="2.21" stroke-linecap="round" stroke-linejoin="round"/>
<path d="M244.64 59.3798L239.58 52.0498" stroke="#E88900" stroke-width="2.21" stroke-linecap="round" stroke-linejoin="round"/>
<path d="M235.51 63.4396L231.79 55.3496" stroke="#E88900" stroke-width="2.21" stroke-linecap="round" stroke-linejoin="round"/>
<path d="M246.36 12.5098L249.19 17.6998L254.38 20.5398L249.19 23.3698L246.36 28.5598L243.52 23.3698L238.34 20.5398L243.52 17.6998L246.36 12.5098Z" fill="white"/>
</g>
<defs>
<clipPath id="clip0_391_2175">
<rect width="446.79" height="412.44" fill="white"/>
</clipPath>
</defs>
</svg>
