<svg width="24" height="24" viewBox="0 0 24 24" fill="none" xmlns="http://www.w3.org/2000/svg">
<path fill-rule="evenodd" clip-rule="evenodd" d="M6.8499 8.00039C6.8499 6.26069 8.26021 4.85039 9.9999 4.85039C11.7396 4.85039 13.1499 6.26069 13.1499 8.00039C13.1499 9.74009 11.7396 11.1504 9.9999 11.1504C8.26021 11.1504 6.8499 9.74009 6.8499 8.00039ZM9.9999 3.15039C7.32132 3.15039 5.1499 5.32181 5.1499 8.00039C5.1499 10.679 7.32132 12.8504 9.9999 12.8504C12.6785 12.8504 14.8499 10.679 14.8499 8.00039C14.8499 5.32181 12.6785 3.15039 9.9999 3.15039ZM4.8499 17.9171C4.8499 17.514 5.17855 16.9983 6.21827 16.5392C7.2078 16.1022 8.58414 15.8504 9.9999 15.8504C11.3956 15.8504 12.7708 16.1435 13.7678 16.6051C14.2668 16.8361 14.6327 17.0916 14.8629 17.3382C15.0845 17.5756 15.1475 17.766 15.1498 17.9089C15.1418 17.9304 15.105 17.9985 14.9626 18.1092C14.7442 18.279 14.3796 18.462 13.8649 18.6274C12.8445 18.9553 11.4362 19.1504 9.9999 19.1504C8.3014 19.1504 6.90326 18.9525 5.9612 18.632C5.48754 18.4708 5.18096 18.2959 5.00759 18.1429C4.84883 18.0028 4.84976 17.929 4.8499 17.9178L4.8499 17.9171ZM15.1518 17.9014C15.152 17.9014 15.1518 17.9034 15.1505 17.9072C15.1509 17.9033 15.1516 17.9014 15.1518 17.9014ZM9.9999 14.1504C8.41567 14.1504 6.792 14.4274 5.53154 14.984C4.32125 15.5185 3.1499 16.4611 3.1499 17.9171C3.1499 18.546 3.46745 19.0511 3.88284 19.4176C4.2876 19.7748 4.82476 20.041 5.4136 20.2414C6.59654 20.6439 8.1984 20.8504 9.9999 20.8504C11.5636 20.8504 13.1553 20.641 14.385 20.2459C14.9952 20.0498 15.5682 19.7917 16.0059 19.4514C16.4403 19.1137 16.8499 18.6038 16.8499 17.9171C16.8499 17.2275 16.536 16.6393 16.1057 16.1782C15.6796 15.7217 15.108 15.3522 14.482 15.0624C13.229 14.4823 11.6042 14.1504 9.9999 14.1504ZM16.1538 11.9189C16.1989 11.4516 16.6142 11.1093 17.0814 11.1543C18.2956 11.2713 19.4221 11.5869 20.2733 12.0792C21.0977 12.5559 21.8499 13.3204 21.8499 14.3737C21.8499 14.9196 21.641 15.4174 21.2348 15.813C20.8518 16.1859 20.3291 16.4353 19.7317 16.6047C19.2801 16.7327 18.8102 16.4704 18.6821 16.0187C18.5541 15.5671 18.8164 15.0972 19.2681 14.9691C19.7157 14.8422 19.9429 14.6982 20.0487 14.5951C20.1313 14.5147 20.1499 14.454 20.1499 14.3737C20.1499 14.217 20.0327 13.9038 19.4223 13.5508C18.8388 13.2134 17.9652 12.9474 16.9184 12.8465C16.4511 12.8014 16.1088 12.3861 16.1538 11.9189ZM17.9999 3.15039C17.5305 3.15039 17.1499 3.53095 17.1499 4.00039C17.1499 4.46983 17.5305 4.85039 17.9999 4.85039C18.9112 4.85039 19.6499 5.58912 19.6499 6.50039C19.6499 7.41166 18.9112 8.15039 17.9999 8.15039C17.5305 8.15039 17.1499 8.53095 17.1499 9.00039C17.1499 9.46983 17.5305 9.85039 17.9999 9.85039C19.8501 9.85039 21.3499 8.35054 21.3499 6.50039C21.3499 4.65024 19.8501 3.15039 17.9999 3.15039Z" fill="black"/>
</svg>
