<svg width="30" height="34" viewBox="0 0 30 34" fill="none" xmlns="http://www.w3.org/2000/svg">
<path fill-rule="evenodd" clip-rule="evenodd" d="M8.23571 3.23047C5.20604 3.23047 2.75 5.6865 2.75 8.71618V25.1733C2.75 28.203 5.20603 30.659 8.23571 30.659H14.9422V30.6593H18.433V30.659H21.95C24.9797 30.659 27.4357 28.203 27.4357 25.1733V8.71618C27.4357 5.68651 24.9797 3.23047 21.95 3.23047H8.23571ZM18.433 30.659V21.2767H21.3444L21.7801 17.6198H18.433V15.2845C18.433 14.2264 18.7046 13.5045 20.108 13.5045L21.8977 13.5035V10.2323C21.5879 10.1878 20.526 10.0879 19.2896 10.0879C16.7086 10.0879 14.9422 11.7922 14.9422 14.9221V17.6188H12.0234V21.2757H14.9422V30.659H18.433Z" fill="black"/>
</svg>
