<svg width="25" height="24" viewBox="0 0 25 24" fill="none" xmlns="http://www.w3.org/2000/svg">
<path d="M21.2031 12.7503H18.2031C17.8053 12.7503 17.4238 12.9083 17.1425 13.1897C16.8612 13.471 16.7031 13.8525 16.7031 14.2503V18.0003C16.7031 18.3981 16.8612 18.7797 17.1425 19.061C17.4238 19.3423 17.8053 19.5003 18.2031 19.5003H19.7031C20.1009 19.5003 20.4825 19.3423 20.7638 19.061C21.0451 18.7797 21.2031 18.3981 21.2031 18.0003V12.7503ZM21.2031 12.7503C21.2032 11.5621 20.9679 10.3856 20.5109 9.28875C20.054 8.1919 19.3843 7.1964 18.5406 6.35969C17.6969 5.52297 16.6959 4.86161 15.5953 4.41375C14.4947 3.96589 13.3163 3.74041 12.1281 3.75031C10.9407 3.74165 9.76333 3.96805 8.66382 4.41647C7.5643 4.86488 6.56439 5.52645 5.7217 6.36304C4.87901 7.19963 4.2102 8.19471 3.75381 9.29094C3.29742 10.3872 3.06247 11.5629 3.0625 12.7503V18.0003C3.0625 18.3981 3.22054 18.7797 3.50184 19.061C3.78314 19.3423 4.16468 19.5003 4.5625 19.5003H6.0625C6.46032 19.5003 6.84186 19.3423 7.12316 19.061C7.40446 18.7797 7.5625 18.3981 7.5625 18.0003V14.2503C7.5625 13.8525 7.40446 13.471 7.12316 13.1897C6.84186 12.9083 6.46032 12.7503 6.0625 12.7503H3.0625" stroke="white" stroke-width="0.9" stroke-linecap="round" stroke-linejoin="round"/>
</svg>
