<svg width="45" height="45" viewBox="0 0 45 45" fill="none" xmlns="http://www.w3.org/2000/svg">
<rect x="0.333984" y="0.333984" width="44.5711" height="44.5711" rx="22.2856" fill="white"/>
<path d="M14.6191 14.6191H17.6191L19.6191 12.6191H25.6191L27.6191 14.6191H30.6191C31.1496 14.6191 31.6583 14.8299 32.0334 15.2049C32.4084 15.58 32.6191 16.0887 32.6191 16.6191V28.6191C32.6191 29.1496 32.4084 29.6583 32.0334 30.0334C31.6583 30.4084 31.1496 30.6191 30.6191 30.6191H14.6191C14.0887 30.6191 13.58 30.4084 13.2049 30.0334C12.8299 29.6583 12.6191 29.1496 12.6191 28.6191V16.6191C12.6191 16.0887 12.8299 15.58 13.2049 15.2049C13.58 14.8299 14.0887 14.6191 14.6191 14.6191ZM22.6191 17.6191C21.2931 17.6191 20.0213 18.1459 19.0836 19.0836C18.1459 20.0213 17.6191 21.2931 17.6191 22.6191C17.6191 23.9452 18.1459 25.217 19.0836 26.1547C20.0213 27.0924 21.2931 27.6191 22.6191 27.6191C23.9452 27.6191 25.217 27.0924 26.1547 26.1547C27.0924 25.217 27.6191 23.9452 27.6191 22.6191C27.6191 21.2931 27.0924 20.0213 26.1547 19.0836C25.217 18.1459 23.9452 17.6191 22.6191 17.6191ZM22.6191 19.6191C23.4148 19.6191 24.1779 19.9352 24.7405 20.4978C25.3031 21.0604 25.6191 21.8235 25.6191 22.6191C25.6191 23.4148 25.3031 24.1779 24.7405 24.7405C24.1779 25.3031 23.4148 25.6191 22.6191 25.6191C21.8235 25.6191 21.0604 25.3031 20.4978 24.7405C19.9352 24.1779 19.6191 23.4148 19.6191 22.6191C19.6191 21.8235 19.9352 21.0604 20.4978 20.4978C21.0604 19.9352 21.8235 19.6191 22.6191 19.6191Z" fill="black"/>
</svg>
