<svg width="30" height="34" viewBox="0 0 30 34" fill="none" xmlns="http://www.w3.org/2000/svg">
<path fill-rule="evenodd" clip-rule="evenodd" d="M15.0616 3.23047C11.7095 3.23047 11.2898 3.24647 9.97326 3.31275C5.49075 3.54133 2.99955 6.30475 2.79384 11.2899C2.73315 12.7539 2.71875 13.2202 2.71875 16.9448C2.71875 20.6693 2.73315 21.1368 2.79281 22.5996C2.99852 27.5802 5.48561 30.3482 9.97223 30.5768C11.2898 30.643 11.7095 30.659 15.0616 30.659C18.4137 30.659 18.8344 30.643 20.151 30.5768C24.6294 30.3482 27.1267 27.5848 27.3294 22.5996C27.3901 21.1368 27.4045 20.6693 27.4045 16.9448C27.4045 13.2202 27.3901 12.7539 27.3304 11.291C27.1288 6.31504 24.6386 3.54247 20.152 3.3139C18.8344 3.24647 18.4137 3.23047 15.0616 3.23047ZM15.0646 9.90234C11.5644 9.90234 8.72656 13.0555 8.72656 16.9446C8.72656 20.8338 11.5644 23.9881 15.0646 23.9881C18.5648 23.9881 21.4027 20.8349 21.4027 16.9446C21.4027 13.0555 18.5648 9.90234 15.0646 9.90234ZM15.0596 21.5159C12.7875 21.5159 10.9453 19.4702 10.9453 16.9445C10.9453 14.4199 12.7875 12.373 15.0596 12.373C17.3317 12.373 19.1739 14.4199 19.1739 16.9445C19.1739 19.4702 17.3317 21.5159 15.0596 21.5159ZM21.6462 7.98047C20.8275 7.98047 20.1641 8.71761 20.1641 9.62618C20.1641 10.5348 20.8275 11.2719 21.6462 11.2719C22.4639 11.2719 23.1263 10.5348 23.1263 9.62618C23.1263 8.71761 22.4639 7.98047 21.6462 7.98047Z" fill="black"/>
</svg>
