<svg width="16" height="19" viewBox="0 0 16 19" fill="none" xmlns="http://www.w3.org/2000/svg">
<path d="M7.99991 0.53125C6.01537 0.533433 4.11272 1.32271 2.70936 2.72592C1.30601 4.12914 0.516542 6.03171 0.51416 8.01625C0.51416 9.94375 2.00666 12.9602 4.95041 16.9818C5.30086 17.4618 5.7597 17.8524 6.28961 18.1217C6.81952 18.3909 7.40552 18.5313 7.99991 18.5313C8.59431 18.5313 9.1803 18.3909 9.71021 18.1217C10.2401 17.8524 10.699 17.4618 11.0494 16.9818C13.9932 12.9602 15.4857 9.94375 15.4857 8.01625C15.4833 6.03171 14.6938 4.12914 13.2905 2.72592C11.8871 1.32271 9.98446 0.533433 7.99991 0.53125ZM7.99991 10.9998C7.40657 10.9998 6.82655 10.8238 6.3332 10.4942C5.83985 10.1645 5.45533 9.69598 5.22827 9.1478C5.00121 8.59962 4.9418 7.99642 5.05755 7.41448C5.17331 6.83254 5.45903 6.29799 5.87859 5.87843C6.29815 5.45887 6.8327 5.17315 7.41464 5.05739C7.99658 4.94164 8.59978 5.00105 9.14796 5.22811C9.69614 5.45517 10.1647 5.83969 10.4943 6.33304C10.824 6.82639 10.9999 7.40641 10.9999 7.99975C10.9999 8.7954 10.6838 9.55846 10.1212 10.1211C9.55862 10.6837 8.79556 10.9998 7.99991 10.9998Z" fill="#667085"/>
</svg>
