<svg width="64" height="64" viewBox="0 0 64 64" fill="none" xmlns="http://www.w3.org/2000/svg">
<path d="M29.526 0.0520859C25.6321 0.311913 21.3851 1.5071 17.6678 3.36744C6.2872 9.07318 -0.638754 20.9212 0.0465727 33.4966C0.15041 35.5752 0.264631 36.4586 0.617678 38.267C3.35898 52.2144 15.3626 62.8568 29.4845 63.8961C30.2425 63.948 38.0407 64 47.4172 64H64L63.9792 60.0715L63.9481 56.1533L58.507 56.1221L53.0659 56.1013L54.53 54.6152C56.2226 52.9211 57.2194 51.7051 58.4447 49.8656C62.9305 43.1309 64.758 35.2842 63.6262 27.5207C62.0998 17.0134 55.7138 8.12742 46.275 3.36744C42.6718 1.55907 38.6325 0.405449 34.7698 0.0832672C33.6276 -0.0102692 30.6578 -0.0310593 29.526 0.0520859ZM34.9982 8.03389C38.5287 8.49118 42.0488 9.81108 45.0912 11.8273C46.6488 12.8666 47.4068 13.4694 48.7255 14.7685C50.8127 16.8159 52.2145 18.7282 53.4917 21.2641C54.7066 23.6649 55.475 26.0761 55.8592 28.7159C56.1187 30.4515 56.1187 33.798 55.8695 35.4193C55.0804 40.4495 52.8998 44.9081 49.4005 48.5976C45.5793 52.6509 40.0966 55.3842 34.5933 55.987C33.3161 56.1325 30.8551 56.1325 29.5468 55.9974C22.382 55.2387 15.8818 51.2478 11.8425 45.1368C9.90074 42.1956 8.62354 38.8698 8.0732 35.3154C7.81361 33.6318 7.80322 30.0878 8.06282 28.508C8.94543 23.1453 11.3129 18.5827 15.2068 14.7685C16.4944 13.511 17.0551 13.0537 18.5712 12.0144C21.6655 9.89423 25.1337 8.55353 28.903 8.03389C30.2944 7.84681 33.503 7.84681 34.9982 8.03389Z" fill="black"/>
</svg>
