<svg width="40" height="40" viewBox="0 0 40 40" fill="none" xmlns="http://www.w3.org/2000/svg">
<rect width="40" height="40" rx="20" fill="#F0F1F3"/>
<g clip-path="url(#clip0_381_1210)">
<path d="M11 25.25C11.0012 26.2442 11.3967 27.1973 12.0997 27.9003C12.8027 28.6033 13.7558 28.9988 14.75 29H25.25C26.2442 28.9988 27.1973 28.6033 27.9003 27.9003C28.6033 27.1973 28.9988 26.2442 29 25.25V18.5H11V25.25ZM23.75 21.875C23.9725 21.875 24.19 21.941 24.375 22.0646C24.56 22.1882 24.7042 22.3639 24.7894 22.5695C24.8745 22.775 24.8968 23.0012 24.8534 23.2195C24.81 23.4377 24.7028 23.6382 24.5455 23.7955C24.3882 23.9528 24.1877 24.06 23.9695 24.1034C23.7512 24.1468 23.525 24.1245 23.3195 24.0394C23.1139 23.9542 22.9382 23.81 22.8146 23.625C22.691 23.44 22.625 23.2225 22.625 23C22.625 22.7016 22.7435 22.4155 22.9545 22.2045C23.1655 21.9935 23.4516 21.875 23.75 21.875ZM20 21.875C20.2225 21.875 20.44 21.941 20.625 22.0646C20.81 22.1882 20.9542 22.3639 21.0394 22.5695C21.1245 22.775 21.1468 23.0012 21.1034 23.2195C21.06 23.4377 20.9528 23.6382 20.7955 23.7955C20.6382 23.9528 20.4377 24.06 20.2195 24.1034C20.0012 24.1468 19.775 24.1245 19.5695 24.0394C19.3639 23.9542 19.1882 23.81 19.0646 23.625C18.941 23.44 18.875 23.2225 18.875 23C18.875 22.7016 18.9935 22.4155 19.2045 22.2045C19.4155 21.9935 19.7016 21.875 20 21.875ZM16.25 21.875C16.4725 21.875 16.69 21.941 16.875 22.0646C17.06 22.1882 17.2042 22.3639 17.2894 22.5695C17.3745 22.775 17.3968 23.0012 17.3534 23.2195C17.31 23.4377 17.2028 23.6382 17.0455 23.7955C16.8882 23.9528 16.6877 24.06 16.4695 24.1034C16.2512 24.1468 16.025 24.1245 15.8195 24.0394C15.6139 23.9542 15.4382 23.81 15.3146 23.625C15.191 23.44 15.125 23.2225 15.125 23C15.125 22.7016 15.2435 22.4155 15.4545 22.2045C15.6655 21.9935 15.9516 21.875 16.25 21.875Z" fill="#667085"/>
<path d="M25.25 12.5H24.5V11.75C24.5 11.5511 24.421 11.3603 24.2803 11.2197C24.1397 11.079 23.9489 11 23.75 11C23.5511 11 23.3603 11.079 23.2197 11.2197C23.079 11.3603 23 11.5511 23 11.75V12.5H17V11.75C17 11.5511 16.921 11.3603 16.7803 11.2197C16.6397 11.079 16.4489 11 16.25 11C16.0511 11 15.8603 11.079 15.7197 11.2197C15.579 11.3603 15.5 11.5511 15.5 11.75V12.5H14.75C13.7558 12.5012 12.8027 12.8967 12.0997 13.5997C11.3967 14.3027 11.0012 15.2558 11 16.25L11 17H29V16.25C28.9988 15.2558 28.6033 14.3027 27.9003 13.5997C27.1973 12.8967 26.2442 12.5012 25.25 12.5Z" fill="#667085"/>
</g>
<defs>
<clipPath id="clip0_381_1210">
<rect width="18" height="18" fill="white" transform="translate(11 11)"/>
</clipPath>
</defs>
</svg>
