<svg width="127" height="126" viewBox="0 0 127 126" fill="none" xmlns="http://www.w3.org/2000/svg">
<g clip-path="url(#clip0_678_6562)">
<path fill-rule="evenodd" clip-rule="evenodd" d="M63.1665 126C97.9604 126 126.166 97.7939 126.166 63C126.166 28.2061 97.9604 0 63.1665 0C28.3726 0 0.166504 28.2061 0.166504 63C0.166504 97.7939 28.3726 126 63.1665 126Z" fill="#E2FBD7"/>
<path fill-rule="evenodd" clip-rule="evenodd" d="M63.1535 0C60.6353 0 58.5939 2.04391 58.5939 4.56522C58.5939 7.08652 60.6353 9.13043 63.1535 9.13043C92.8685 9.13043 116.957 33.2487 116.957 63C116.957 92.7513 92.8685 116.87 63.1535 116.87C48.9679 116.87 35.662 111.355 25.6854 101.661C23.8784 99.9045 20.9917 99.9478 19.2378 101.757C17.484 103.566 17.5272 106.457 19.3342 108.212C30.9958 119.544 46.5725 126 63.1535 126C97.9049 126 126.076 97.7939 126.076 63C126.076 28.2061 97.9049 0 63.1535 0Z" fill="#34B53A"/>
<path d="M51.0849 70.24C50.0716 70.24 49.2183 70.0533 48.5249 69.68C47.8316 69.2933 47.2716 68.78 46.8449 68.14C46.4316 67.5 46.1249 66.7867 45.9249 66C45.7383 65.2 45.6449 64.3867 45.6449 63.56C45.6449 62.0133 45.8583 60.66 46.2849 59.5C46.7116 58.3267 47.3249 57.4133 48.1249 56.76C48.9383 56.0933 49.9183 55.76 51.0649 55.76C51.9449 55.76 52.6983 55.9333 53.3249 56.28C53.9516 56.6267 54.4449 57.0933 54.8049 57.68C55.1783 58.2533 55.4116 58.8933 55.5049 59.6H53.9449C53.7983 58.84 53.4716 58.2533 52.9649 57.84C52.4583 57.4267 51.8183 57.22 51.0449 57.22C49.9916 57.22 49.1049 57.72 48.3849 58.72C47.6783 59.7067 47.2983 61.2533 47.2449 63.36C47.5649 62.7333 48.0716 62.1933 48.7649 61.74C49.4716 61.2733 50.3183 61.04 51.3049 61.04C52.1049 61.04 52.8516 61.2267 53.5449 61.6C54.2516 61.9733 54.8249 62.5 55.2649 63.18C55.7049 63.8467 55.9249 64.6333 55.9249 65.54C55.9249 66.3267 55.7316 67.08 55.3449 67.8C54.9583 68.52 54.3983 69.1067 53.6649 69.56C52.9449 70.0133 52.0849 70.24 51.0849 70.24ZM50.9649 68.76C51.5916 68.76 52.1516 68.6267 52.6449 68.36C53.1383 68.0933 53.5249 67.7267 53.8049 67.26C54.0849 66.78 54.2249 66.2333 54.2249 65.62C54.2249 64.6733 53.9116 63.92 53.2849 63.36C52.6716 62.7867 51.8983 62.5 50.9649 62.5C50.3383 62.5 49.7783 62.6467 49.2849 62.94C48.7916 63.22 48.3983 63.6 48.1049 64.08C47.8249 64.56 47.6849 65.08 47.6849 65.64C47.6849 66.24 47.8249 66.78 48.1049 67.26C48.3983 67.7267 48.7916 68.0933 49.2849 68.36C49.7783 68.6267 50.3383 68.76 50.9649 68.76ZM59.2753 70L64.8353 57.44H57.1553V56H66.5553V57.26L61.0553 70H59.2753ZM71.2993 62.5C70.6993 62.5 70.1526 62.3667 69.6593 62.1C69.1793 61.82 68.7993 61.4333 68.5193 60.94C68.2393 60.4333 68.0993 59.8333 68.0993 59.14C68.0993 58.4467 68.2393 57.8533 68.5193 57.36C68.8126 56.8533 69.1993 56.4667 69.6793 56.2C70.1726 55.92 70.7193 55.78 71.3193 55.78C71.9193 55.78 72.4593 55.92 72.9393 56.2C73.4193 56.4667 73.7993 56.8533 74.0793 57.36C74.3593 57.8533 74.4993 58.4467 74.4993 59.14C74.4993 59.8333 74.3527 60.4333 74.0593 60.94C73.7793 61.4333 73.3993 61.82 72.9193 62.1C72.4393 62.3667 71.8993 62.5 71.2993 62.5ZM70.0593 70L78.1993 56H79.8793L71.7393 70H70.0593ZM71.2993 61.2C71.766 61.2 72.1726 61.0267 72.5193 60.68C72.8793 60.3333 73.0593 59.82 73.0593 59.14C73.0593 58.4467 72.886 57.9267 72.5393 57.58C72.1927 57.22 71.786 57.04 71.3193 57.04C70.8526 57.04 70.4326 57.22 70.0593 57.58C69.6993 57.9267 69.5193 58.4467 69.5193 59.14C69.5193 59.82 69.6993 60.3333 70.0593 60.68C70.4193 61.0267 70.8326 61.2 71.2993 61.2ZM78.7793 70.24C78.1793 70.24 77.6327 70.1067 77.1393 69.84C76.6593 69.56 76.2793 69.1733 75.9993 68.68C75.7193 68.1733 75.5793 67.5733 75.5793 66.88C75.5793 66.1867 75.7193 65.5933 75.9993 65.1C76.2927 64.5933 76.6793 64.2067 77.1593 63.94C77.6393 63.66 78.1793 63.52 78.7793 63.52C79.3793 63.52 79.9193 63.66 80.3993 63.94C80.8793 64.2067 81.2593 64.5933 81.5393 65.1C81.8193 65.5933 81.9593 66.1867 81.9593 66.88C81.9593 67.5733 81.8193 68.1733 81.5393 68.68C81.2593 69.1733 80.8793 69.56 80.3993 69.84C79.9193 70.1067 79.3793 70.24 78.7793 70.24ZM78.7593 68.94C79.2393 68.94 79.6527 68.7667 79.9993 68.42C80.3593 68.0733 80.5393 67.56 80.5393 66.88C80.5393 66.1867 80.366 65.6667 80.0193 65.32C79.6727 64.9733 79.2593 64.8 78.7793 64.8C78.3127 64.8 77.8993 64.9733 77.5393 65.32C77.1793 65.6667 76.9993 66.1867 76.9993 66.88C76.9993 67.56 77.1727 68.0733 77.5193 68.42C77.8793 68.7667 78.2927 68.94 78.7593 68.94Z" fill="black"/>
</g>
<defs>
<clipPath id="clip0_678_6562">
<rect width="126" height="126" fill="white" transform="translate(0.166504)"/>
</clipPath>
</defs>
</svg>
