<svg width="18" height="19" viewBox="0 0 18 19" fill="none" xmlns="http://www.w3.org/2000/svg">
<g clip-path="url(#clip0_468_939)">
<path d="M14.2133 17.7497H14.1885C13.8053 17.7437 13.4408 17.581 13.1805 17.2997L11.742 15.889C11.454 15.5912 11.4608 15.1165 11.7585 14.8285C11.7593 14.8277 11.76 14.827 11.7608 14.8262C12.0585 14.5405 12.531 14.5487 12.8183 14.8442L14.214 16.2115L16.7197 13.7057C17.0122 13.4132 17.4877 13.4132 17.7802 13.7057C18.0727 13.9982 18.0727 14.4737 17.7802 14.7662L15.2145 17.332C14.9505 17.5997 14.5898 17.7505 14.2133 17.7497Z" fill="#667085"/>
<path d="M10.5264 15.5109C10.5234 13.0382 12.5251 11.0312 14.9971 11.0274C15.9594 11.0259 16.8969 11.3349 17.6694 11.9087C18.9991 7.11991 16.1949 2.16016 11.4069 0.830409C6.61886 -0.499341 1.65986 2.30416 0.330112 7.09291C-0.999638 11.8817 1.80461 16.8422 6.59261 18.1719C8.16761 18.6092 9.83186 18.6092 11.4069 18.1719C10.8354 17.4024 10.5264 16.4694 10.5264 15.5109ZM9.75011 9.51616C9.75011 9.71566 9.67061 9.90616 9.52961 10.0472L7.27586 12.3017C6.97736 12.5897 6.50186 12.5814 6.21386 12.2829C5.93261 11.9919 5.93261 11.5299 6.21386 11.2389L8.24786 9.20491V5.75941C8.24786 5.34466 8.58386 5.00791 8.99936 5.00791C9.41411 5.00791 9.75011 5.34466 9.75011 5.75941V9.51616Z" fill="#667085"/>
</g>
<defs>
<clipPath id="clip0_468_939">
<rect width="18" height="18" fill="white" transform="translate(0 0.5)"/>
</clipPath>
</defs>
</svg>
