<svg width="41" height="40" viewBox="0 0 41 40" fill="none" xmlns="http://www.w3.org/2000/svg">
<rect x="0.25" width="40" height="40" rx="4" fill="black"/>
<rect x="4.25" y="4" width="32" height="32" rx="3.28205" fill="black"/>
<path d="M25.1358 21.9459C25.1358 22.5777 24.9693 23.1635 24.6361 23.7034C24.3145 24.2318 23.832 24.6683 23.1887 25.0129C22.5569 25.3461 21.8045 25.5299 20.9315 25.5643V26.96H19.8287V25.5471C18.6111 25.4437 17.6289 25.0819 16.8823 24.4616C16.1356 23.8298 15.7393 22.974 15.6934 21.8942H18.8294C18.8983 22.5834 19.2314 23.0257 19.8287 23.2209V20.4985C18.9327 20.2687 18.2148 20.0447 17.6749 19.8265C17.1465 19.6082 16.6813 19.2579 16.2792 18.7754C15.8771 18.2929 15.6761 17.6324 15.6761 16.7939C15.6761 15.7485 16.0609 14.91 16.8306 14.2782C17.6117 13.6464 18.6111 13.2903 19.8287 13.2099V11.8142H20.9315V13.2099C22.1377 13.3018 23.0911 13.6521 23.7918 14.2609C24.4925 14.8698 24.8831 15.7141 24.9635 16.7939H21.8103C21.7414 16.1736 21.4484 15.7715 20.9315 15.5877V18.2585C21.8849 18.5227 22.6201 18.7582 23.137 18.9649C23.654 19.1717 24.1135 19.5163 24.5155 19.9988C24.929 20.4698 25.1358 21.1188 25.1358 21.9459ZM18.7949 16.656C18.7949 16.9432 18.881 17.1844 19.0534 17.3797C19.2371 17.575 19.4956 17.7473 19.8287 17.8966V15.5016C19.5071 15.559 19.2544 15.6853 19.0706 15.8806C18.8868 16.0644 18.7949 16.3229 18.7949 16.656ZM20.9315 23.2726C21.2761 23.2152 21.5461 23.0773 21.7414 22.8591C21.9481 22.6408 22.0515 22.3709 22.0515 22.0492C22.0515 21.7506 21.9539 21.5093 21.7586 21.3256C21.5748 21.1303 21.2991 20.9637 20.9315 20.8259V23.2726Z" fill="white"/>
</svg>
