<svg width="41" height="40" viewBox="0 0 41 40" fill="none" xmlns="http://www.w3.org/2000/svg">
<rect x="0.5" width="40" height="40" rx="4" fill="black"/>
<path fill-rule="evenodd" clip-rule="evenodd" d="M27.4983 8.10352H10.1445C9.08367 8.10352 8.06625 8.44979 7.3161 9.06617C6.56596 9.68255 6.14453 10.5185 6.14453 11.3902V28.9194C6.14453 29.7911 6.56596 30.627 7.3161 31.2434C8.06625 31.8598 9.08367 32.2061 10.1445 32.2061H28.8112C29.8721 32.2061 30.8895 31.8598 31.6396 31.2434C32.3898 30.627 32.8112 29.7911 32.8112 28.9194V13.7458C32.7434 13.7479 32.6752 13.7489 32.6068 13.7489C31.7186 13.7489 30.8811 13.5705 30.1445 13.255V28.9194C30.1445 29.2099 30.0041 29.4886 29.754 29.6941C29.504 29.8995 29.1648 30.0149 28.8112 30.0149H10.1445C9.79091 30.0149 9.45177 29.8995 9.20172 29.6941C8.95167 29.4886 8.8112 29.2099 8.8112 28.9194V11.3902C8.8112 11.0997 8.95167 10.821 9.20172 10.6155C9.45177 10.4101 9.79091 10.2947 10.1445 10.2947H27.3933C27.3148 9.99554 27.2734 9.68506 27.2734 9.36666C27.2734 8.92753 27.352 8.50349 27.4983 8.10352Z" fill="white"/>
<circle cx="31.5789" cy="8.92268" r="2.46154" stroke="white" stroke-width="1.64103"/>
<rect x="11.0664" y="13.0254" width="11.4872" height="2.46154" rx="1.23077" fill="white"/>
<rect x="11.0664" y="17.9492" width="16.4103" height="2.46154" rx="1.23077" fill="white"/>
</svg>
