<svg width="17" height="16" viewBox="0 0 17 16" fill="none" xmlns="http://www.w3.org/2000/svg">
<path d="M14.3336 2.66666H12.267C11.948 1.11572 10.5837 0.002 9.00031 0H7.66696C6.08355 0.002 4.71924 1.11572 4.4003 2.66666H2.33365C1.96546 2.66666 1.66699 2.96513 1.66699 3.33331C1.66699 3.7015 1.96546 4 2.33365 4H3.0003V12.6667C3.00252 14.5067 4.49362 15.9978 6.33365 16H10.3336C12.1737 15.9978 13.6648 14.5067 13.667 12.6667V4H14.3336C14.7018 4 15.0003 3.70153 15.0003 3.33334C15.0003 2.96516 14.7018 2.66666 14.3336 2.66666ZM7.66699 11.3333C7.66699 11.7015 7.36852 12 7.00034 12C6.63212 12 6.33365 11.7015 6.33365 11.3333V7.33334C6.33365 6.96516 6.63212 6.66669 7.0003 6.66669C7.36849 6.66669 7.66696 6.96516 7.66696 7.33334V11.3333H7.66699ZM10.3336 11.3333C10.3336 11.7015 10.0352 12 9.66699 12C9.2988 12 9.00034 11.7015 9.00034 11.3333V7.33334C9.00034 6.96516 9.2988 6.66669 9.66699 6.66669C10.0352 6.66669 10.3336 6.96516 10.3336 7.33334V11.3333ZM5.78099 2.66666C6.06456 1.86819 6.81968 1.33434 7.66699 1.33331H9.00034C9.84765 1.33434 10.6028 1.86819 10.8863 2.66666H5.78099Z" fill="#A3A9B6"/>
</svg>
