<svg width="30" height="34" viewBox="0 0 30 34" fill="none" xmlns="http://www.w3.org/2000/svg">
<path fill-rule="evenodd" clip-rule="evenodd" d="M27.3654 8.61151C26.4572 9.05951 25.4811 9.36123 24.4566 9.49723C25.5027 8.80123 26.306 7.69837 26.6835 6.38408C25.7053 7.02866 24.6212 7.49723 23.4671 7.7498C22.5445 6.65608 21.2269 5.97266 19.7704 5.97266C16.5006 5.97266 14.0979 9.36237 14.8364 12.8812C10.6285 12.6469 6.89683 10.4069 4.39843 7.00237C3.07157 9.53151 3.71032 12.8401 5.96494 14.5155C5.13592 14.4858 4.3542 14.2332 3.67226 13.8115C3.61672 16.4184 5.29843 18.8572 7.73409 19.4001C7.02129 19.6149 6.2406 19.6652 5.44654 19.4961C6.09043 21.7315 7.96037 23.3578 10.178 23.4035C8.04883 25.2584 5.36632 26.0869 2.67969 25.7349C4.92094 27.3315 7.58392 28.2629 10.4433 28.2629C19.8465 28.2629 25.1591 19.4389 24.8382 11.5247C25.8277 10.7304 26.6865 9.73951 27.3654 8.61151Z" fill="black"/>
</svg>
