<svg width="25" height="24" viewBox="0 0 25 24" fill="none" xmlns="http://www.w3.org/2000/svg">
<path d="M21.0625 16.621V7.37727C21.0618 7.24374 21.0259 7.11277 20.9584 6.99755C20.8909 6.88234 20.7942 6.78695 20.6781 6.72102L12.4281 2.08039C12.317 2.01621 12.1909 1.98242 12.0625 1.98242C11.9341 1.98242 11.808 2.01621 11.6969 2.08039L3.44687 6.72102C3.33077 6.78695 3.2341 6.88234 3.16661 6.99755C3.09913 7.11277 3.06322 7.24374 3.0625 7.37727V16.621C3.06322 16.7545 3.09913 16.8855 3.16661 17.0007C3.2341 17.1159 3.33077 17.2113 3.44687 17.2773L11.6969 21.9179C11.808 21.9821 11.9341 22.0159 12.0625 22.0159C12.1909 22.0159 12.317 21.9821 12.4281 21.9179L20.6781 17.2773C20.7942 17.2113 20.8909 17.1159 20.9584 17.0007C21.0259 16.8855 21.0618 16.7545 21.0625 16.621V16.621Z" stroke="white" stroke-width="0.9" stroke-linecap="round" stroke-linejoin="round"/>
<path d="M16.6562 14.2969V9.42188L7.5625 4.40625" stroke="white" stroke-width="0.9" stroke-linecap="round" stroke-linejoin="round"/>
<path d="M20.9578 6.99414L12.1453 12.0004L3.16406 6.99414" stroke="white" stroke-width="0.9" stroke-linecap="round" stroke-linejoin="round"/>
<path d="M12.1469 12L12.0625 22.0125" stroke="white" stroke-width="0.9" stroke-linecap="round" stroke-linejoin="round"/>
</svg>
